# xmcd CD database file
#
# Track frame offsets:
#	150
#	19887
#	41492
#
# Disc length: 832 seconds
#
# Revision: 1
# Processed by: cddbd v1.5.1PL0 Copyright (c) Steve Scherf et al.
# Submitted via: CDex 1.51
#
DISCID=1c033e03
DTITLE=田村ゆかり - 夢見月のアリス
DYEAR=2004
DGENRE=Anime
TTITLE0=夢見月のアリス
TTITLE1=空の向こう側に
TTITLE2=Sugar Time Trip
EXTD=YEAR: 2004
EXTT0=
EXTT1=
EXTT2=
PLAYORDER=
